<svg id="Layer_1" data-name="Layer 1" xmlns="http://www.w3.org/2000/svg" viewBox="0 0 58.14 51.45"><defs><style>.cls-1{fill:#74757c;}.cls-2{fill:#f8f8f8;}</style></defs><path class="cls-1" d="M11.2,5.26a3.49,3.49,0,0,1,2.47-1l26.49,0A3.49,3.49,0,0,1,43,5.79L58.39,28.2a3.52,3.52,0,0,1,0,3.94l-15,22a3.48,3.48,0,0,1-2.89,1.53H13.67a3.49,3.49,0,0,1-3.49-3.49V7.73A3.47,3.47,0,0,1,11.2,5.26Z" transform="translate(-0.86 -4.24)"/><path class="cls-2" d="M1.88,5.26a3.5,3.5,0,0,1,2.48-1l26.48,0a3.48,3.48,0,0,1,2.88,1.52L49.07,28.2a3.5,3.5,0,0,1,0,3.94l-14.95,22a3.51,3.51,0,0,1-2.89,1.53H4.35A3.49,3.49,0,0,1,.86,52.2V7.73A3.51,3.51,0,0,1,1.88,5.26Z" transform="translate(-0.86 -4.24)"/></svg>